<?xml version="1.0" encoding="utf-8"?>
<!-- Generator: Adobe Illustrator 16.0.4, SVG Export Plug-In . SVG Version: 6.00 Build 0)  -->
<!DOCTYPE svg PUBLIC "-//W3C//DTD SVG 1.1//EN" "http://www.w3.org/Graphics/SVG/1.1/DTD/svg11.dtd">
<svg version="1.1" id="Layer_1" xmlns="http://www.w3.org/2000/svg" xmlns:xlink="http://www.w3.org/1999/xlink" x="0px" y="0px"
	 width="360px" height="360px" viewBox="0 0 360 360" enable-background="new 0 0 360 360" xml:space="preserve">
<g>
	<path d="M101.099,324.9c-6.4-2.801-7.6-4.801-7.6-13.6c0-22,1.6-46,2-52.4c0.4-5.999,1.6-10.399,4.8-10.399c3.6,0,4,3.601,4,6.8
		c0,5.2,1.6,13.6,3.6,20.4c8.8,29.6,32.399,40.398,57.199,40.398c35.999,0,53.599-24.398,53.599-45.599
		c0-19.6-6-37.999-39.199-63.999l-18.399-14.4c-44-34.399-59.199-62.398-59.199-94.798c0-44,36.8-75.599,92.398-75.599
		c26,0,42.8,4,53.199,6.8c3.6,0.8,5.6,2,5.6,4.8c0,5.2-1.6,16.8-1.6,47.999c0,8.8-1.2,12-4.4,12c-2.8,0-3.999-2.4-3.999-7.2
		c0-3.6-2-16-10.4-26.399c-6-7.6-17.6-19.6-43.6-19.6c-29.6,0-47.599,17.2-47.599,41.199c0,18.4,9.199,32.399,42.399,57.599
		l11.199,8.4c48.399,36.399,65.6,63.999,65.6,101.998c0,23.2-8.8,50.8-37.6,69.6c-20,12.8-42.399,16.399-63.6,16.399
		C136.299,335.3,118.299,332.5,101.099,324.9z"/>
</g>
</svg>
